<svg width="696" height="101" viewBox="0 0 696 101" fill="none" xmlns="http://www.w3.org/2000/svg">
<path d="M152.176 34.98C152.176 33.308 151.956 32.076 151.516 31.284C151.164 30.492 150.328 29.348 149.008 27.852V26.004C150.768 24.948 153.628 24.024 157.588 23.232C161.548 22.352 165.024 21.912 168.016 21.912C172.856 21.912 176.068 22.132 177.652 22.572C178.18 23.452 178.444 25.168 178.444 27.72C178.444 30.272 176.508 39.028 172.636 53.988C174.924 54.516 177.3 54.78 179.764 54.78C184.604 54.78 188.168 52.36 190.456 47.52C192.832 42.592 194.02 37.048 194.02 30.888C194.02 19.624 186.98 13.992 172.9 13.992C162.164 13.992 153.144 15.708 145.84 19.14C138.536 22.484 134.884 26.62 134.884 31.548C134.884 35.332 137.524 37.752 142.804 38.808C142.892 39.512 142.936 40.348 142.936 41.316C142.936 46.156 142.144 49.808 140.56 52.272C136.424 51.744 132.684 49.984 129.34 46.992C125.996 44 124.324 39.512 124.324 33.528C124.324 24.288 129.296 17.028 139.24 11.748C149.272 6.37999 161.372 3.69599 175.54 3.69599C189.796 3.69599 200.62 5.89599 208.012 10.296C215.492 14.608 219.232 21.208 219.232 30.096C219.232 38.896 215.976 46.684 209.464 53.46C202.952 60.236 194.064 63.624 182.8 63.624C177.96 63.624 173.912 62.964 170.656 61.644C166.696 77.308 164.364 89.276 163.66 97.548C157.324 99.044 150.196 99.792 142.276 99.792C140.164 99.792 138.712 99.66 137.92 99.396C138.36 93.94 140.824 83.116 145.312 66.924C149.888 50.732 152.176 40.084 152.176 34.98ZM251.971 91.608C249.155 94.072 245.459 96.184 240.883 97.944C236.307 99.704 232.127 100.584 228.343 100.584C224.647 100.584 221.611 99.528 219.235 97.416C216.859 95.216 215.671 92.092 215.671 88.044C215.671 83.996 217.871 72.732 222.271 54.252C226.759 35.684 229.003 21.912 229.003 12.936C229.003 11 228.739 8.536 228.211 5.544C236.483 3.256 244.491 2.112 252.235 2.112C253.027 3.51999 253.423 5.80799 253.423 8.97599C253.423 14.96 251.179 28.028 246.691 48.18C242.291 68.244 240.091 79.816 240.091 82.896C240.091 85.976 240.619 87.516 241.675 87.516C242.555 87.516 244.447 86.944 247.351 85.8L248.803 85.14L251.971 91.608ZM319.935 45.54C318.087 51.26 316.503 58.08 315.183 66C313.863 73.832 313.203 79.332 313.203 82.5C313.203 85.58 313.687 87.12 314.655 87.12L321.255 85.272L323.631 91.872C320.815 94.072 317.207 96.096 312.807 97.944C308.495 99.704 304.667 100.584 301.323 100.584C295.603 100.584 291.995 98.12 290.499 93.192C283.547 98.12 277.387 100.584 272.019 100.584C266.739 100.584 262.647 98.648 259.743 94.776C256.839 90.904 255.387 85.36 255.387 78.144C255.387 68.2 257.939 59.444 263.043 51.876C268.147 44.308 274.879 40.524 283.239 40.524C287.815 40.524 292.479 41.8 297.231 44.352C297.935 42.768 298.507 41.624 298.947 40.92C305.283 40.92 312.279 42.46 319.935 45.54ZM280.203 76.56C280.203 80.96 280.511 83.732 281.127 84.876C281.743 86.02 282.887 86.592 284.559 86.592C286.231 86.592 287.859 85.932 289.443 84.612C289.795 74.404 291.467 63.712 294.459 52.536C293.139 51.744 291.599 51.348 289.839 51.348C288.167 51.348 286.627 52.316 285.219 54.252C283.899 56.188 282.887 58.608 282.183 61.512C280.863 67.056 280.203 72.072 280.203 76.56ZM358.908 49.368C356.18 49.368 353.848 51.788 351.912 56.628C349.976 61.468 349.008 66.352 349.008 71.28C349.008 82.104 352.132 87.516 358.38 87.516C362.34 87.516 366.828 85.624 371.844 81.84L376.068 87.648C372.372 91.696 367.928 94.864 362.736 97.152C357.632 99.44 352.528 100.584 347.424 100.584C340.56 100.584 334.972 98.516 330.66 94.38C326.436 90.156 324.324 83.82 324.324 75.372C324.324 65.164 327.448 56.804 333.696 50.292C340.032 43.78 348.304 40.524 358.512 40.524C365.112 40.524 370.304 41.888 374.088 44.616C377.872 47.256 379.764 50.644 379.764 54.78C379.764 58.828 378.532 62.348 376.068 65.34C373.164 65.34 369.996 64.812 366.564 63.756C363.22 62.612 360.536 61.204 358.512 59.532L360.492 49.632C359.964 49.456 359.436 49.368 358.908 49.368ZM446.005 45.54C444.157 51.26 442.573 58.08 441.253 66C439.933 73.832 439.273 79.332 439.273 82.5C439.273 85.58 439.757 87.12 440.725 87.12L447.325 85.272L449.701 91.872C446.885 94.072 443.277 96.096 438.877 97.944C434.565 99.704 430.737 100.584 427.393 100.584C421.673 100.584 418.065 98.12 416.569 93.192C409.617 98.12 403.457 100.584 398.089 100.584C392.809 100.584 388.717 98.648 385.813 94.776C382.909 90.904 381.457 85.36 381.457 78.144C381.457 68.2 384.009 59.444 389.113 51.876C394.217 44.308 400.949 40.524 409.309 40.524C413.885 40.524 418.549 41.8 423.301 44.352C424.005 42.768 424.577 41.624 425.017 40.92C431.353 40.92 438.349 42.46 446.005 45.54ZM406.273 76.56C406.273 80.96 406.581 83.732 407.197 84.876C407.813 86.02 408.957 86.592 410.629 86.592C412.301 86.592 413.929 85.932 415.513 84.612C415.865 74.404 417.537 63.712 420.529 52.536C419.209 51.744 417.669 51.348 415.909 51.348C414.237 51.348 412.697 52.316 411.289 54.252C409.969 56.188 408.957 58.608 408.253 61.512C406.933 67.056 406.273 72.072 406.273 76.56ZM490.918 7.656C490.918 14.08 488.762 26.576 484.45 45.144C489.554 42.064 494.262 40.524 498.574 40.524C502.886 40.524 506.67 42.328 509.926 45.936C513.182 49.544 514.81 56.144 514.81 65.736C514.81 75.24 512.17 83.424 506.89 90.288C501.698 97.152 495.274 100.584 487.618 100.584C483.042 100.584 478.51 99.352 474.022 96.888C465.222 99 457.786 100.056 451.714 100.056C451.274 99.792 451.054 98.296 451.054 95.568C451.054 89.144 453.606 75.372 458.71 54.252C463.902 33.132 466.498 18.788 466.498 11.22C466.498 9.284 466.41 7.436 466.234 5.676C474.77 3.3 482.734 2.112 490.126 2.112C490.654 2.992 490.918 4.84 490.918 7.656ZM486.826 53.724C485.594 53.724 484.01 54.208 482.074 55.176C478.29 71.456 476.09 82.412 475.474 88.044C477.058 88.836 478.51 89.232 479.83 89.232C482.822 89.232 485.242 86.02 487.09 79.596C489.026 73.172 489.994 67.276 489.994 61.908C489.994 56.452 488.938 53.724 486.826 53.724ZM584.708 45.54C582.86 51.26 581.276 58.08 579.956 66C578.636 73.832 577.976 79.332 577.976 82.5C577.976 85.58 578.46 87.12 579.428 87.12L586.028 85.272L588.404 91.872C585.588 94.072 581.98 96.096 577.58 97.944C573.268 99.704 569.44 100.584 566.096 100.584C560.376 100.584 556.768 98.12 555.272 93.192C548.32 98.12 542.16 100.584 536.792 100.584C531.512 100.584 527.42 98.648 524.516 94.776C521.612 90.904 520.16 85.36 520.16 78.144C520.16 68.2 522.712 59.444 527.816 51.876C532.92 44.308 539.652 40.524 548.012 40.524C552.588 40.524 557.252 41.8 562.004 44.352C562.708 42.768 563.28 41.624 563.72 40.92C570.056 40.92 577.052 42.46 584.708 45.54ZM544.976 76.56C544.976 80.96 545.284 83.732 545.9 84.876C546.516 86.02 547.66 86.592 549.332 86.592C551.004 86.592 552.632 85.932 554.216 84.612C554.568 74.404 556.24 63.712 559.232 52.536C557.912 51.744 556.372 51.348 554.612 51.348C552.94 51.348 551.4 52.316 549.992 54.252C548.672 56.188 547.66 58.608 546.956 61.512C545.636 67.056 544.976 72.072 544.976 76.56ZM633.486 81.18C633.486 86.636 630.934 91.256 625.83 95.04C620.814 98.736 614.918 100.584 608.142 100.584C601.366 100.584 595.778 99.44 591.378 97.152C587.066 94.864 584.91 92.708 584.91 90.684C584.91 88.572 586.23 85.932 588.87 82.764C591.598 79.508 594.37 77.616 597.186 77.088C601.234 79.288 604.886 84.172 608.142 91.74C610.694 91.74 611.97 90.904 611.97 89.232C611.97 88 611.618 86.856 610.914 85.8C610.21 84.744 609.682 83.908 609.33 83.292C608.978 82.676 608.362 81.84 607.482 80.784C606.602 79.64 605.942 78.804 605.502 78.276C603.302 75.636 601.322 73.216 599.562 71.016C595.338 65.736 593.226 61.116 593.226 57.156C593.226 53.108 594.502 49.808 597.054 47.256C601.454 42.768 607.922 40.524 616.458 40.524C621.826 40.524 626.094 41.58 629.262 43.692C632.43 45.716 634.014 48.796 634.014 52.932C634.014 56.98 631.594 61.644 626.754 66.924C631.242 72.116 633.486 76.868 633.486 81.18ZM624.642 57.024C625.698 55.352 626.226 53.856 626.226 52.536C626.226 51.216 625.654 50.204 624.51 49.5C623.366 48.796 622.002 48.444 620.418 48.444C618.834 48.444 617.602 48.84 616.722 49.632C615.93 50.336 615.534 51.304 615.534 52.536C615.534 53.768 617.426 56.496 621.21 60.72C622.442 59.84 623.586 58.608 624.642 57.024ZM638.339 75.108C638.339 64.196 641.639 55.704 648.239 49.632C654.927 43.56 663.155 40.524 672.923 40.524C679.699 40.524 685.111 42.02 689.159 45.012C693.295 47.916 695.363 51.832 695.363 56.76C695.363 60.368 694.263 63.58 692.063 66.396C689.863 69.212 687.179 71.368 684.011 72.864C677.323 75.856 671.515 77.66 666.587 78.276L663.287 78.672C664.255 84.48 667.159 87.384 671.999 87.384C674.111 87.384 676.443 86.944 678.995 86.064C681.547 85.096 683.571 84.128 685.067 83.16L687.311 81.84L691.535 87.516C691.535 87.516 691.051 88 690.083 88.968C689.555 89.496 688.279 90.552 686.255 92.136C684.319 93.632 682.251 94.952 680.051 96.096C677.939 97.24 675.211 98.252 671.867 99.132C668.523 100.1 665.179 100.584 661.835 100.584C654.355 100.584 648.547 98.428 644.411 94.116C640.363 89.716 638.339 83.38 638.339 75.108ZM662.759 69.96C665.311 69.608 667.863 67.54 670.415 63.756C672.967 59.884 674.243 56.672 674.243 54.12C674.243 51.48 673.495 50.16 671.999 50.16C669.799 50.16 667.775 51.876 665.927 55.308C664.079 58.74 663.023 63.624 662.759 69.96Z" fill="#17202A" fill-opacity="0.2"/>
<path fill-rule="evenodd" clip-rule="evenodd" d="M0 0.999999C0 0.447714 0.447715 0 1 0H99C99.5523 0 100 0.447715 100 1V99C100 99.5523 99.5523 100 99 100H0.999999C0.447714 100 0 99.5523 0 99V0.999999ZM72.3334 26H51.3334V37H53.0854C53.2913 36.4174 53.8469 36 54.5 36C55.3284 36 56 36.6716 56 37.5C56 38.3284 55.3284 39 54.5 39C53.8469 39 53.2913 38.5826 53.0854 38H51.3334V42H56V39.5C56 39.2239 56.2239 39 56.5 39H60.0854C60.2913 38.4174 60.8469 38 61.5 38C62.3284 38 63 38.6716 63 39.5C63 40.3284 62.3284 41 61.5 41C60.8469 41 60.2913 40.5826 60.0854 40H57V42H58C58.5523 42 59 42.4477 59 43V50H62.5C62.7761 50 63 50.2239 63 50.5V54.0854C63.5826 54.2913 64 54.8469 64 55.5C64 56.3284 63.3284 57 62.5 57C61.6716 57 61 56.3284 61 55.5C61 54.8469 61.4174 54.2913 62 54.0854V51H59V59C59 59.5523 58.5523 60 58 60H56V65H59.0854C59.2913 64.4174 59.8469 64 60.5 64C61.3284 64 62 64.6716 62 65.5C62 66.3284 61.3284 67 60.5 67C59.8469 67 59.2913 66.5826 59.0854 66H55.5C55.2583 66 55.0568 65.8286 55.0101 65.6008C55.0035 65.5682 55 65.5345 55 65.5V60H51.3334V76H72.3334C74.5425 76 76.3334 74.2091 76.3334 72V30C76.3334 27.7909 74.5425 26 72.3334 26ZM23 17C23 14.7909 24.7909 13 27 13H44C46.2091 13 48 14.7909 48 17V42H45V36.5C45 36.2239 44.7762 36 44.5 36H40.9146C40.7087 35.4174 40.1531 35 39.5 35C38.6716 35 38 35.6716 38 36.5C38 37.3284 38.6716 38 39.5 38C40.1531 38 40.7087 37.5826 40.9146 37H44V42H42C41.4477 42 41 42.4477 41 43V50H38V46.9146C38.5826 46.7087 39 46.1531 39 45.5C39 44.6716 38.3284 44 37.5 44C36.6716 44 36 44.6716 36 45.5C36 46.1531 36.4174 46.7087 37 46.9146V50.5C37 50.7761 37.2239 51 37.5 51H41V59C41 59.5523 41.4477 60 42 60V62H38.9146C38.7087 61.4174 38.1531 61 37.5 61C36.6716 61 36 61.6716 36 62.5C36 63.3284 36.6716 64 37.5 64C38.1531 64 38.7087 63.5826 38.9146 63H42.5C42.7761 63 43 62.7761 43 62.5V60H48V64H45.9146C45.7087 63.4174 45.1531 63 44.5 63C43.6716 63 43 63.6716 43 64.5C43 65.3284 43.6716 66 44.5 66C45.1531 66 45.7087 65.5826 45.9146 65H48V84C48 86.2091 46.2091 88 44 88H27C24.7909 88 23 86.2091 23 84V17Z" fill="#17202A" fill-opacity="0.2"/>
</svg>
